<svg width="1280" height="720" xmlns="http://www.w3.org/2000/svg" xmlns:xlink="http://www.w3.org/1999/xlink" overflow="hidden"><g><rect x="0" y="0" width="1280" height="720" fill="#FFFFFF"/><rect x="0" y="0" width="1280" height="720" fill="#FFFFFF"/><path d="M712.829 645.836 712.725 645.844C712.717 645.863 712.709 645.882 712.701 645.9ZM1.03244 0 1.29732 0.000104987 1280 0.000104987 1280 536 1279.97 536 1280 551.914 1266.26 556.014C1252.86 559.818 1239.41 563.444 1225.91 566.893 1182.44 578.184 1138.62 588.015 1094.53 596.673 1059.61 603.522 1024.57 609.656 989.399 615.07 955.695 620.286 921.904 624.967 888.023 629.113 862.085 632.281 836.094 634.967 810.076 637.51L729.839 644.419 728.221 644.637 712.908 645.83 713.905 646.021C715.131 646.07 716.403 645.842 717.631 645.842 719.326 645.842 721.021 645.568 722.73 645.529 747.066 644.955 771.375 643.677 795.671 642.113 832.289 639.753 868.88 636.793 905.391 632.986 935.427 629.908 965.387 626.271 995.272 622.072 1035.69 616.361 1075.91 609.564 1115.94 601.68 1164.32 592.109 1212.28 580.818 1259.68 567.44L1280 561.454 1280 567.203 1241.92 578.262C1211 586.633 1179.86 594.078 1148.47 600.793 1115.26 607.912 1081.88 614.214 1048.35 619.699 1020.48 624.263 992.526 628.322 964.502 631.877 943.223 634.563 921.944 637.093 900.598 639.179L825.654 645.633C793.175 647.98 760.683 649.858 728.137 651.031L680.079 652.491C676.031 652.272 671.972 652.443 667.957 653L635.919 653 627.589 652.517 552.765 648.71C520.553 647.406 488.381 645.255 456.302 642.191L354.125 631.838C318.678 628.24 283.302 624.076 247.997 619.347 208.367 614.08 168.857 608.017 129.467 601.158 88.418 593.941 47.6386 585.698 7.1916 575.982L0 574.159 0 568.226 7.60535 570.198C26.0326 574.628 44.5317 578.751 63.0673 582.63 103.756 591.118 144.686 598.355 185.776 604.705 215.478 609.281 245.22 613.493 274.389 616.987 273.548 617.261 272.4 616.205 270.985 615.944 219.126 606.286 167.736 594.639 116.812 581.001 92.436 574.481 68.2113 567.499 44.1377 560.054L0 545.463 0.00629921 536 0 536 0 0.000104987 1.03244 0.000104987Z" fill="#ED7D31" fill-rule="evenodd"/><g><g><g><path d="M816.917 142.668 814.826 142.668C814.527 126.432 806.726 111.248 793.701 101.55L793.37 101.301 793.018 101.079C784.38 95.4014 774.284 92.3442 763.947 92.2771 758.513 92.2424 753.107 93.0484 747.919 94.6658 737.631 74.8703 717.145 62.4809 694.836 62.5612 690.342 62.6624 685.864 63.1426 681.451 63.9967L681.132 64.0508 680.79 64.1267C653.652 70.3408 634.36 94.4177 634.213 122.258 634.213 122.551 634.213 123.163 634.213 123.163 631.818 122.752 629.389 122.57 626.96 122.621 611.029 122.654 596.061 130.257 586.638 143.102 575.488 158.173 573.27 178.064 580.826 195.221L580.95 195.508 581.091 195.795C589.424 212.197 605.735 223.039 624.083 224.373L624.549 224.417 816.326 224.417C838.661 224.184 856.956 206.608 858.083 184.301L858.083 184.084 858.083 183.867C858.086 161.125 839.659 142.684 816.917 142.668ZM816.24 213.583 625.031 213.583C610.453 212.543 597.474 203.973 590.792 190.974 584.777 177.377 586.503 161.599 595.315 149.623 602.712 139.528 614.456 133.537 626.97 133.476 629.186 133.48 631.4 133.634 633.595 133.937L644.97 136.049C644.999 136.055 645.028 136.036 645.034 136.007 645.034 136.003 645.035 135.999 645.035 135.995L645.035 123.125C644.789 100.028 660.646 79.8707 683.152 74.6729 686.987 73.9255 690.876 73.4944 694.782 73.3837 713.405 73.2943 730.453 83.8233 738.711 100.516L742.568 108.224C742.586 108.241 742.614 108.241 742.632 108.224L750.985 105.012C755.165 103.691 759.526 103.037 763.909 103.072 772.185 103.143 780.262 105.611 787.163 110.179 797.614 117.942 803.831 130.148 803.965 143.167L803.965 153.458C803.965 153.488 803.99 153.512 804.02 153.512L816.884 153.512C833.637 153.495 847.232 167.061 847.25 183.813 847.25 183.831 847.25 183.85 847.25 183.867 846.455 200.441 832.832 213.496 816.24 213.583Z"/><path d="M646.833 267.75 441 267.75C429.034 267.75 419.333 277.451 419.333 289.417L419.333 424.833C419.333 436.799 429.034 446.5 441 446.5L522.25 446.5 522.25 479 489.75 479 489.75 489.833 598.083 489.833 598.083 479 565.583 479 565.583 446.5 646.833 446.5C658.799 446.5 668.5 436.799 668.5 424.833L668.5 289.417C668.5 277.451 658.799 267.75 646.833 267.75ZM554.75 479 533.083 479 533.083 446.5 554.75 446.5ZM657.667 424.833C657.667 430.817 652.817 435.667 646.833 435.667L441 435.667C435.017 435.667 430.167 430.817 430.167 424.833L430.167 289.417C430.167 283.433 435.017 278.583 441 278.583L646.833 278.583C652.817 278.583 657.667 283.433 657.667 289.417Z"/><path d="M441 424.833 646.833 424.833 646.833 289.417 441 289.417ZM451.833 300.25 636 300.25 636 414 451.833 414Z"/><path d="M478.689 243.873C475.533 236.83 473.783 229.238 473.538 221.524 473.235 187.526 500.549 159.72 534.546 159.417 534.911 159.413 535.275 159.413 535.64 159.417L536.128 159.417C536.198 159.417 536.214 159.46 536.165 159.509L507.587 188.087 515.246 195.746 551.576 159.417 515.246 123.087 507.587 130.746 525.776 148.935C525.82 148.979 525.776 149.022 525.744 149.027 486.845 153.326 458.796 188.345 463.096 227.243 463.899 234.512 465.822 241.613 468.798 248.293Z"/><path d="M766.227 253.71C769.384 260.753 771.133 268.345 771.379 276.059 771.682 310.057 744.368 337.863 710.37 338.167 710.006 338.17 709.641 338.17 709.277 338.167L708.789 338.167C708.719 338.167 708.703 338.123 708.751 338.075L737.33 309.496 729.67 301.837 693.341 338.167 729.67 374.496 737.33 366.837 719.14 348.648C719.097 348.605 719.14 348.561 719.173 348.556 758.072 344.257 786.12 309.238 781.821 270.34 781.018 263.071 779.094 255.97 776.118 249.29Z"/></g></g></g><g><g><g><path d="M391 135 402 135 402 141 430 141 430 135 441 135 441 197 391 197 391 135ZM416.1 127C417.7 127 419 128.4 419 130 419 131.7 417.7 133 416 133 414.3 133 413 131.7 413 130 413 128.3 414.3 127 416.1 127ZM385 133 385 199C385 201.2 386.8 203 389 203L443 203C445.2 203 447 201.2 447 199L447 133C447 130.8 445.2 129 443 129L426 129 426 127C426 124.8 424.2 123 422 123L410 123C407.8 123 406 124.8 406 127L406 129 389 129C386.8 129 385 130.8 385 133Z"/><path d="M397 149 414 149 414 153 397 153Z"/><path d="M397 161 414 161 414 165 397 165Z"/><path d="M397 173 414 173 414 177 397 177Z"/><path d="M397 185 414 185 414 189 397 189Z"/><path d="M420.9 150.8 423 148.7 425.6 151.3 432.2 144.7 434.3 146.8 425.6 155.5Z"/><path d="M420.9 162.8 423 160.7 425.6 163.3 432.2 156.7 434.3 158.8 425.6 167.5Z"/><path d="M420.9 174.8 423 172.7 425.6 175.3 432.2 168.7 434.3 170.8 425.6 179.5Z"/><path d="M420.9 186.8 423 184.7 425.6 187.3 432.2 180.7 434.3 182.8 425.6 191.5Z"/></g></g></g><g><g><g><path d="M517.5 352C520.333 351.999 522.78 353.98 523.37 356.75 523.64 357.821 524.727 358.47 525.798 358.2 526.812 357.944 527.458 356.951 527.28 355.92 526.128 350.519 520.815 347.074 515.414 348.226 511.556 349.049 508.543 352.062 507.72 355.92 507.532 357.008 508.262 358.043 509.35 358.232 510.38 358.41 511.374 357.764 511.63 356.75 512.22 353.98 514.667 351.999 517.5 352Z"/><path d="M546.5 348C541.786 348.02 537.719 351.313 536.72 355.92 536.532 357.008 537.262 358.043 538.35 358.232 539.38 358.41 540.374 357.764 540.63 356.75 541.316 353.508 544.5 351.436 547.742 352.122 550.064 352.614 551.879 354.428 552.37 356.75 552.558 357.838 553.593 358.568 554.682 358.38 555.77 358.191 556.5 357.156 556.311 356.068 556.303 356.018 556.292 355.969 556.28 355.92 555.281 351.313 551.214 348.02 546.5 348Z"/><path d="M551.46 373.41C550.584 372.741 549.332 372.906 548.66 373.78 541.599 382.981 528.417 384.716 519.215 377.655 517.76 376.538 516.457 375.236 515.34 373.78 514.666 372.905 513.41 372.741 512.535 373.415 511.66 374.089 511.496 375.345 512.17 376.22 520.578 387.172 536.272 389.234 547.224 380.826 548.954 379.498 550.502 377.95 551.83 376.22 552.504 375.345 552.341 374.089 551.467 373.415 551.464 373.413 551.462 373.412 551.46 373.41Z"/><path d="M503.32 329.37C504.413 328.339 505.562 327.367 506.76 326.46 505.078 325.963 503.515 325.126 502.17 324 504 322 513.9 318 532 318 550.1 318 560 322 561.83 324 560.485 325.126 558.922 325.963 557.24 326.46 558.438 327.367 559.587 328.339 560.68 329.37 564 327.82 566 326 566 324 566 318.48 550.78 314 532 314 513.22 314 498 318.48 498 324 498 326 500 327.82 503.32 329.37Z"/><path d="M532 326C550.778 326 566 341.222 566 360 566 378.778 550.778 394 532 394 513.222 394 498 378.778 498 360 498 341.222 513.222 326 532 326M532 322C511.013 322 494 339.013 494 360 494 380.987 511.013 398 532 398 552.987 398 570 380.987 570 360 570 339.013 552.987 322 532 322Z"/></g></g></g><g><g><g><path d="M834.027 336C834.027 323.85 843.877 314 856.027 314 868.177 314 878.027 323.85 878.027 336 878.027 348.15 868.177 358 856.027 358 843.892 357.964 834.063 348.135 834.027 336ZM858.027 308.1 858.027 304 862.027 304C863.132 304 864.027 303.105 864.027 302 864.027 300.895 863.132 300 862.027 300L850.027 300C848.922 300 848.027 300.895 848.027 302 848.027 303.105 848.922 304 850.027 304L854.027 304 854.027 308.1C838.612 309.195 827.003 322.579 828.098 337.994 828.568 344.618 831.379 350.858 836.027 355.6L832.227 363.1C831.727 364.085 832.12 365.289 833.105 365.789 833.112 365.793 833.12 365.796 833.127 365.8 833.414 365.914 833.718 365.981 834.027 366 834.781 365.982 835.467 365.562 835.827 364.9L839.127 358.3C849.112 365.901 862.942 365.901 872.927 358.3L876.227 364.9C876.587 365.562 877.273 365.982 878.027 366 878.336 365.981 878.64 365.914 878.927 365.8 879.918 365.312 880.326 364.113 879.838 363.122 879.834 363.115 879.831 363.107 879.827 363.1L876.027 355.6C886.845 344.564 886.669 326.848 875.633 316.029 870.891 311.381 864.651 308.57 858.027 308.1Z"/><path d="M854.027 334 840.027 334 840.027 338 856.027 338C857.13 337.997 858.024 337.103 858.027 336L858.027 320 854.027 320Z"/><path d="M888.227 308.2 879.927 299.9C878.39 298.326 875.867 298.296 874.293 299.834 874.271 299.856 874.249 299.878 874.227 299.9L869.027 305 883.027 319 888.227 313.8C889.727 312.235 889.727 309.765 888.227 308.2Z"/><path d="M843.027 305 837.827 299.8C836.289 298.226 833.767 298.196 832.193 299.734 832.171 299.756 832.149 299.778 832.127 299.8L823.827 308.1C822.253 309.638 822.223 312.16 823.761 313.734 823.783 313.756 823.805 313.778 823.827 313.8L829.027 319Z"/><path d="M822.2 344.4 825 341.6C821.933 338.419 821.933 333.381 825 330.2L822.2 327.4C817.533 332.106 817.533 339.694 822.2 344.4Z"/><path d="M816.6 350 819.4 347.2C813.159 340.996 813.13 330.907 819.334 324.666 819.356 324.644 819.378 324.622 819.4 324.6L816.6 321.8C808.813 329.477 808.724 342.013 816.401 349.801 816.467 349.868 816.533 349.934 816.6 350Z"/><path d="M889.5 344.4 886.7 341.6C889.767 338.419 889.767 333.381 886.7 330.2L889.5 327.4C894.167 332.106 894.167 339.694 889.5 344.4Z"/><path d="M895.1 350 892.3 347.2C898.541 340.996 898.57 330.907 892.366 324.666 892.344 324.644 892.322 324.622 892.3 324.6L895.1 321.8C902.887 329.477 902.976 342.013 895.299 349.801 895.233 349.868 895.167 349.934 895.1 350Z"/></g></g></g></g></svg>